<?xml version="1.0" encoding="UTF-8"?>
<svg width="35px" height="28px" viewBox="0 0 35 28" version="1.1" xmlns="http://www.w3.org/2000/svg" xmlns:xlink="http://www.w3.org/1999/xlink">
    <!-- Generator: Sketch 55.1 (78136) - https://sketchapp.com -->
    <title>账户</title>
    <desc>Created with Sketch.</desc>
    <g id="snapscale" stroke="none" stroke-width="1" fill="none" fill-rule="evenodd">
        <g id="二级页_02" transform="translate(-118.000000, -299.000000)" fill="#382AC7" fill-rule="nonzero" stroke="#382AC7">
            <g id="账户" transform="translate(119.000000, 300.000000)">
                <path d="M30.559993,23.5848061 L2.44374445,23.5848061 L2.44374445,2.41886145 L30.5562364,2.41886145 L30.5562364,6.65277602 L21.3930541,6.65277602 C18.0222054,6.65277602 15.2780583,9.36437271 15.2780583,12.6980761 C15.2780582,16.0317795 18.0222054,18.7470438 21.3930541,18.7470438 L30.5636296,18.7470438 L30.5636296,23.5848061 L30.559993,23.5848061 L30.559993,23.5848061 Z M30.559993,9.07163747 L30.559993,16.3282218 L21.3930541,16.3282218 C19.3720395,16.3282218 17.7255592,14.699781 17.7255592,12.7017437 C17.7255592,10.7000388 19.3720395,9.07526559 21.3930541,9.07526559 L30.559993,9.07526559 L30.559993,9.07163747 L30.559993,9.07163747 L30.559993,9.07163747 Z M30.559993,0 L2.44374445,0 C1.09762692,0 0,1.08682346 0,2.41886145 L0,23.5811386 C0,24.9131765 1.09762688,26 2.44374445,26 L30.5562364,26 C31.9023539,26 33,24.9131765 33,23.5811386 L33,2.41886145 C33.0037374,1.08682346 31.9061105,0 30.559993,0 L30.559993,0 Z M19.5575083,12.6981156 C19.5575083,13.700782 20.3770319,14.5131687 21.3893775,14.5131687 C22.401763,14.5131687 23.2212866,13.700782 23.2212866,12.6981156 C23.2212866,11.6954491 22.4017631,10.8830624 21.3893775,10.8830624 C20.3770319,10.8866906 19.5575083,11.6954491 19.5575083,12.6981156 L19.5575083,12.6981156 Z" id="形状"></path>
            </g>
        </g>
    </g>
</svg>