<?xml version="1.0" encoding="UTF-8"?>
<svg width="35px" height="35px" viewBox="0 0 35 35" version="1.1" xmlns="http://www.w3.org/2000/svg" xmlns:xlink="http://www.w3.org/1999/xlink">
    <!-- Generator: Sketch 55.1 (78136) - https://sketchapp.com -->
    <title>时间 (1)备份</title>
    <desc>Created with Sketch.</desc>
    <g id="snapscale" stroke="none" stroke-width="1" fill="none" fill-rule="evenodd">
        <g id="二级页_03" transform="translate(-119.000000, -675.000000)" fill="#382AC7" fill-rule="nonzero" stroke="#382AC7">
            <g id="时间-(1)备份" transform="translate(120.000000, 676.000000)">
                <path d="M33.4356441,16.7058824 C33.4356441,16.0457516 32.8996964,15.5130719 32.2395657,15.5130719 C31.579435,15.5130719 31.0467553,16.0490196 31.0467553,16.7091503 L31.0467553,16.7352941 C31.0467553,23.7908497 25.9095004,29.7973856 18.9389121,30.8888889 C11.9683239,31.9869281 5.2395657,27.8431373 3.07943496,21.127451 C0.919304219,14.4117647 3.96832386,7.12091504 10.2689775,3.94444445 C16.5696311,0.767973858 24.2428337,2.65032679 28.3604807,8.38235296 L26.2755134,8.38235296 C25.6153827,8.38235296 25.0827029,8.91830068 25.0827029,9.57516341 C25.0827029,10.2352941 25.6186507,10.7679739 26.2755134,10.7679739 L30.455252,10.7679739 C30.7722454,10.7679739 31.076167,10.6437909 31.2983892,10.4183007 C31.5238794,10.1928105 31.6480624,9.89215687 31.6480624,9.57516341 L31.6480624,4.1993464 C31.6480624,3.53921569 31.1121147,3.00653595 30.455252,3.00653595 C29.7951213,3.00653595 29.2624415,3.54248367 29.2624415,4.1993464 L29.2624415,5.67973856 C23.9160363,-0.375817002 15.0108075,-1.74836601 8.09577485,2.41830065 C1.17747419,6.58496731 -1.77350619,15.0980392 1.08270296,22.6503268 C3.9389121,30.2026144 11.7820494,34.6372549 19.7264938,33.1862745 C27.6676703,31.7352941 33.4389121,24.8137255 33.4389121,16.7418301 L33.4389121,16.7058824 L33.4356441,16.7058824 Z" id="路径"></path>
                <path d="M24.4813958,17.9313726 C24.4813958,17.6143791 24.3572128,17.3104575 24.1317225,17.0882353 C23.9062323,16.8660131 23.6055787,16.7385621 23.2885853,16.7385621 L16.7199579,16.7385621 L16.7199579,10.1699346 C16.7199579,9.50980393 16.1840101,8.97712419 15.5271474,8.97712419 C14.8670167,8.97712419 14.334337,9.51307191 14.334337,10.1699346 L14.334337,17.9313726 C14.334337,18.5915033 14.8702847,19.1241979 15.5271474,19.1241979 L23.2885853,19.1241979 C23.948716,19.127451 24.4813958,18.5915033 24.4813958,17.9313726 L24.4813958,17.9313726 Z" id="路径"></path>
            </g>
        </g>
    </g>
</svg>