<?xml version="1.0" encoding="UTF-8"?>
<svg width="29px" height="34px" viewBox="0 0 29 34" version="1.1" xmlns="http://www.w3.org/2000/svg" xmlns:xlink="http://www.w3.org/1999/xlink">
    <!-- Generator: Sketch 55.1 (78136) - https://sketchapp.com -->
    <title>blockchain</title>
    <desc>Created with Sketch.</desc>
    <g id="snapscale" stroke="none" stroke-width="1" fill="none" fill-rule="evenodd">
        <g id="二级页_01" transform="translate(-121.000000, -297.000000)" fill="#382AC7" fill-rule="nonzero">
            <g id="blockchain" transform="translate(121.000000, 297.000000)">
                <path d="M16.00075,29.9583262 L25.9985,23.932282 L25.9985,11.8772796 L16.00075,17.9047808 L16.00075,29.9583262 Z M24.49775,9.16293716 L14.5,3.13543596 L4.2485,9.3173764 L14.2448,15.3434206 L24.4963,9.16293716 L24.49775,9.16293716 Z M3.0015,12.1847011 L3.0015,23.932282 L12.48885,29.6509047 L12.48885,17.9047808 L3.0015,12.1847011 Z M29,9.90745085 L29,24.0925492 C29,25.1161157 28.4655472,26.0646345 27.59205,26.5912595 L15.99205,33.5847344 C15.073665,34.1384219 13.926335,34.1384219 13.00795,33.5847344 L1.40795,26.5912595 C0.534452762,26.0646345 0,25.1161157 0,24.0925492 L0,9.90745085 C0,8.88388435 0.534452762,7.9353655 1.40795,7.40874053 L13.00795,0.415265609 C13.926335,-0.13842187 15.073665,-0.13842187 15.99205,0.415265609 L27.59205,7.40874053 C28.4655472,7.9353655 29,8.88388435 29,9.90745085 Z" id="形状"></path>
            </g>
        </g>
    </g>
</svg>