<?xml version="1.0" encoding="UTF-8"?>
<svg width="28px" height="33px" viewBox="0 0 28 33" version="1.1" xmlns="http://www.w3.org/2000/svg" xmlns:xlink="http://www.w3.org/1999/xlink">
    <!-- Generator: Sketch 56.2 (81672) - https://sketch.com -->
    <title>contract</title>
    <desc>Created with Sketch.</desc>
    <g id="snapscale" stroke="none" stroke-width="1" fill="none" fill-rule="evenodd">
        <g id="explorer" transform="translate(-82.000000, -297.000000)" fill="#382AC7" fill-rule="nonzero">
            <path d="M105.550668,306.833574 L99.8290604,301.273507 L99.8290604,306.833574 L105.550668,306.833574 Z M97.0851813,309.500144 L97.0851813,300.166955 L86.1138956,300.166955 C85.7292756,300.166955 85.4043999,300.295931 85.1392685,300.553883 C84.8797371,300.799512 84.7357695,301.143163 84.7427253,301.500433 L84.7427253,325.500721 C84.7349962,325.858138 84.8790899,326.20209 85.1392685,326.447271 C85.4031178,326.704966 85.7279935,326.833814 86.1138956,326.833814 L105.314126,326.833814 C105.700798,326.833814 106.026058,326.704966 106.289907,326.447271 C106.548872,326.201373 106.692266,325.857757 106.684912,325.500721 L106.684912,309.500529 L97.0851813,309.500144 Z M86.1146648,297.5 L99.8290604,297.5 L109.428407,306.833574 L109.428407,325.500337 C109.428407,326.602273 109.026479,327.549207 108.223392,328.326909 C107.420306,329.104611 106.450678,329.5 105.313742,329.5 L86.1138956,329.5 C84.9792666,329.5 84.0097677,329.10897 83.2053991,328.326909 C82.4015433,327.549207 82,326.602273 82,325.500337 L82,301.500048 C82,300.397471 82.4017997,299.45528 83.2053991,298.673476 C84.0089985,297.891671 84.9784973,297.500513 86.1138956,297.5 L86.1146648,297.5 Z M100.449576,315.21069 L98.149973,315.21069 C98.0922424,314.367533 97.8035893,314.273849 97.1685526,314.262138 L94.5418097,314.262138 C94.2146696,314.262138 93.7335812,314.191875 93.5219022,314.683717 C93.4449281,314.835953 93.4641716,315.234111 93.531524,315.386347 C93.7528247,315.807926 94.445592,315.772794 94.9266805,315.772794 L97.8035893,315.854768 C98.5156002,315.889899 99.9973526,315.737663 100.536172,316.943845 C100.863312,317.693318 100.834446,319.403053 100.449576,320.164236 C99.8530261,321.370419 98.0922424,321.382129 97.2936356,321.382129 L93.4256846,321.382129 C92.9638397,321.382129 91.9150669,321.300156 91.3954914,320.375025 C91.1453254,319.906605 91.1164601,318.899501 91.1260818,318.278844 L93.4449281,318.278844 C93.5026587,319.145422 93.9163948,319.075159 94.3589961,319.075159 L97.110822,319.075159 C97.4379621,319.075159 98.1211077,319.09858 98.3327866,318.782396 C98.4290043,318.630159 98.4290043,318.313975 98.3327866,318.056344 C98.1788383,317.669897 97.5726669,317.72845 96.9087648,317.705029 L93.8490424,317.623055 C93.0985444,317.611345 91.8380927,317.634766 91.3570043,316.510556 C91.0298642,315.772794 91.0298642,313.782007 91.3858696,313.044245 C91.9727975,311.849773 93.0985444,311.955167 94.1858043,311.955167 L98.1884601,311.955167 C98.813875,311.955167 99.7375648,312.095694 100.209031,312.985692 C100.478441,313.465823 100.449576,314.730559 100.449576,315.21069 Z" id="contract"></path>
        </g>
    </g>
</svg>