<?xml version="1.0" encoding="UTF-8"?>
<svg width="221px" height="30px" viewBox="0 0 221 30" version="1.1" xmlns="http://www.w3.org/2000/svg" xmlns:xlink="http://www.w3.org/1999/xlink">
    <!-- Generator: Sketch 55.1 (78136) - https://sketchapp.com -->
    <title>Group</title>
    <desc>Created with Sketch.</desc>
    <defs>
        <linearGradient x1="50%" y1="0%" x2="50%" y2="100%" id="linearGradient-1">
            <stop stop-color="#B91C23" offset="0%"></stop>
            <stop stop-color="#173365" offset="100%"></stop>
        </linearGradient>
        <linearGradient x1="50%" y1="0%" x2="50%" y2="100%" id="linearGradient-2">
            <stop stop-color="#B91C23" offset="0%"></stop>
            <stop stop-color="#173365" offset="100%"></stop>
        </linearGradient>
    </defs>
    <g id="Page-1" stroke="none" stroke-width="1" fill="none" fill-rule="evenodd">
        <g id="Group">
            <path d="M14.4003056,14.7721541 L27.1350842,0.737704918 L1.66552697,0.737704918 L14.4003056,14.7721541 Z M14.4003056,14.8682922 L1.66552697,28.9027414 L27.1350842,28.9027414 L14.4003056,14.8682922 Z" id="123" stroke="url(#linearGradient-1)" stroke-width="1.47540984"></path>
            <path d="M50.7029935,20.5405405 C50.7029935,22.5165165 49.0823199,24.6606607 45.8620206,24.6606607 C42.4522919,24.6606607 41,22.4954955 41,21.9069069 C41,21.5285285 41.3367633,21.2552553 41.6945744,21.2552553 C41.9050514,21.2552553 42.1155285,21.3393393 42.2628625,21.5915916 C42.873246,22.7057057 44.1782039,23.4204204 45.8830683,23.4204204 C47.9036483,23.4204204 49.3348924,22.1381381 49.3348924,20.5615616 C49.3348924,19.5525526 48.7245089,18.4594595 47.3564079,17.6816817 C46.2829747,17.0720721 45.1253508,16.5045045 43.9887746,15.9369369 C42.4312442,15.1591592 41.6735267,13.8138138 41.6735267,12.5105105 C41.6735267,10.7027027 43.1047708,9 45.7357343,9 C48.3666978,9 49.9242283,10.4924925 49.9242283,11.1651652 C49.9242283,11.5225225 49.6295603,11.8378378 49.292797,11.8378378 C49.0823199,11.8378378 48.8718428,11.7327327 48.7034612,11.4804805 C48.1772685,10.7237237 47.2301216,10.1141141 45.7146866,10.1141141 C43.9887746,10.1141141 42.9574369,11.2282282 42.9574369,12.4684685 C42.9574369,13.3303303 43.4836296,14.2552553 44.6202058,14.8648649 C45.5673527,15.3693694 47.0617399,16.042042 47.9667914,16.5465465 C49.8821328,17.5975976 50.7029935,19.1111111 50.7029935,20.5405405 Z M60.3217961,23.987988 L60.3217961,23.966967 C60.3428438,23.0840841 60.3638915,21.4444444 60.3638915,20.1201201 C60.3638915,19.2582583 60.3428438,18.5225225 60.3217961,18.1861862 C60.2165575,16.4834835 59.1431244,15.7687688 57.9644528,15.7687688 C56.4911132,15.7687688 54.8283442,16.9039039 54.7862488,18.5855856 C54.7652011,19.2372372 54.7441534,20.3933934 54.7441534,21.8438438 C54.7441534,22.5165165 54.7441534,23.2102102 54.7652011,23.966967 L54.7652011,23.987988 C54.7652011,24.3663664 54.4705332,24.5555556 54.1548176,24.5555556 C53.839102,24.5555556 53.5023386,24.3453453 53.5023386,23.966967 L53.5023386,23.9459459 C53.5444341,22.2432432 53.5865295,20.2882883 53.5865295,18.5015015 C53.5865295,17.3243243 53.5654818,16.2312312 53.5444341,15.3063063 L53.5444341,15.2852853 C53.5444341,14.9489489 53.8811974,14.7387387 54.2179607,14.7387387 C54.5126286,14.7387387 54.8072965,14.9069069 54.8072965,15.3063063 L54.8072965,16.1051051 C54.8072965,16.1681682 54.8283442,16.1891892 54.8283442,16.1891892 C54.849392,16.1891892 54.8914874,16.1681682 54.9125351,16.1261261 C55.6702526,15.1171171 56.8699719,14.6126126 58.0275959,14.6126126 C59.7745557,14.6126126 61.4583723,15.7477477 61.5425631,17.975976 C61.5636109,18.6486486 61.5846586,20.2042042 61.5846586,21.6546547 C61.5846586,22.5375375 61.5846586,23.3993994 61.5636109,23.966967 C61.5636109,24.3873874 61.2689429,24.5765766 60.9532273,24.5765766 C60.6375117,24.5765766 60.3217961,24.3663664 60.3217961,23.987988 Z M71.2245089,22.8738739 C71.2245089,22.8738739 71.1824135,22.8948949 71.1613658,22.9369369 C70.5299345,24.009009 69.1197381,24.6606607 67.8358279,24.6606607 C65.7100094,24.6606607 64.4260992,23.2102102 64.4260992,21.7597598 C64.4260992,20.7087087 65.1206735,19.6366366 66.6782039,19.1531532 C67.9831618,18.7537538 69.6880262,18.4384384 70.5720299,18.2912913 C70.8246024,18.2492492 70.9087933,18.1861862 70.9087933,18.039039 C70.9087933,17.9339339 70.929841,17.8078078 70.929841,17.7027027 C70.929841,16.5465465 70.4457437,15.6426426 68.7408793,15.6426426 C67.6043031,15.6426426 66.7623948,16.1261261 66.2782975,16.6516517 C66.1520112,16.7987988 65.9836296,16.8618619 65.8362956,16.8618619 C65.52058,16.8618619 65.2469598,16.6306306 65.2469598,16.2942943 C65.2469598,15.4954955 67.0149673,14.5915916 68.8250702,14.5915916 C70.782507,14.5915916 72.1085126,15.4534535 72.1085126,17.8078078 C72.1085126,17.996997 72.1085126,18.1861862 72.0874649,18.3963964 C72.0243218,19.0900901 71.9822264,20.036036 71.9822264,20.7297297 C71.9822264,22.4744745 72.3189897,22.8948949 73.160898,23.3363363 C73.3292797,23.4204204 73.3924228,23.5885886 73.3924228,23.7567568 C73.3924228,24.0510511 73.1398503,24.4084084 72.7609916,24.4084084 C72.6347053,24.4084084 71.5823199,24.1141141 71.287652,22.957958 C71.2666043,22.8948949 71.2666043,22.8738739 71.2245089,22.8738739 Z M67.8147802,23.5465465 C69.7511693,23.5465465 70.8666978,22.0960961 70.8666978,20.3093093 C70.8666978,20.0780781 70.8877456,19.8468468 70.8877456,19.5945946 C70.8877456,19.4264264 70.8246024,19.3633634 70.6772685,19.3633634 L70.6141254,19.3633634 C67.3096352,19.8888889 65.5626754,20.3093093 65.5626754,21.7807808 C65.5626754,22.6636637 66.4045837,23.5465465 67.8147802,23.5465465 Z M76.2128157,29.2852853 L76.2128157,29.2642643 C76.2338634,27.6456456 76.2549111,24.3453453 76.2549111,21.3183183 C76.2549111,18.8168168 76.2338634,16.5255255 76.2128157,15.4744745 L76.2128157,15.4534535 C76.2128157,14.990991 76.5074836,14.7807808 76.8231993,14.7807808 C77.1389149,14.7807808 77.4756782,14.990991 77.4756782,15.4114114 C77.4756782,15.6426426 77.4546305,16.021021 77.4546305,16.2102102 C77.4546305,16.3363363 77.4546305,16.4204204 77.4967259,16.4204204 C77.5388213,16.4204204 77.5809167,16.3573574 77.6651076,16.2522523 C78.4017774,15.2642643 79.6225444,14.6336336 81.0537886,14.6336336 C83.7899906,14.6336336 85.8316183,16.6936937 85.8316183,19.6576577 C85.8316183,22.6636637 83.7899906,24.6396396 81.0537886,24.6396396 C79.8119738,24.6396396 78.570159,24.1351351 77.7282507,23.1051051 C77.6019645,22.957958 77.5388213,22.8528529 77.4967259,22.8528529 C77.4546305,22.8528529 77.4546305,22.9369369 77.4546305,23.1891892 C77.4546305,23.7357357 77.4756782,27.1411411 77.4756782,28.6546547 C77.4756782,29.5165165 77.4756782,30 76.844247,30 C76.5285313,30 76.2128157,29.7687688 76.2128157,29.2852853 Z M81.0116932,23.5255255 C83.0112254,23.5255255 84.5898036,22.012012 84.5898036,19.6576577 C84.5898036,17.3033033 83.0112254,15.7477477 81.0116932,15.7477477 C79.0121609,15.7477477 77.4335828,17.3033033 77.4335828,19.6576577 C77.4335828,22.012012 79.0121609,23.5255255 81.0116932,23.5255255 Z M97.4078578,20.5405405 C97.4078578,22.5165165 95.7871843,24.6606607 92.5668849,24.6606607 C89.1571562,24.6606607 87.7048644,22.4954955 87.7048644,21.9069069 C87.7048644,21.5285285 88.0416277,21.2552553 88.3994387,21.2552553 C88.6099158,21.2552553 88.8203929,21.3393393 88.9677268,21.5915916 C89.5781104,22.7057057 90.8830683,23.4204204 92.5879326,23.4204204 C94.6085126,23.4204204 96.0397568,22.1381381 96.0397568,20.5615616 C96.0397568,19.5525526 95.4293732,18.4594595 94.0612722,17.6816817 C92.9878391,17.0720721 91.8302152,16.5045045 90.6936389,15.9369369 C89.1361085,15.1591592 88.378391,13.8138138 88.378391,12.5105105 C88.378391,10.7027027 89.8096352,9 92.4405987,9 C95.0715622,9 96.6290926,10.4924925 96.6290926,11.1651652 C96.6290926,11.5225225 96.3344247,11.8378378 95.9976614,11.8378378 C95.7871843,11.8378378 95.5767072,11.7327327 95.4083255,11.4804805 C94.8821328,10.7237237 93.934986,10.1141141 92.419551,10.1141141 C90.6936389,10.1141141 89.6623012,11.2282282 89.6623012,12.4684685 C89.6623012,13.3303303 90.1884939,14.2552553 91.3250702,14.8648649 C92.272217,15.3693694 93.7666043,16.042042 94.6716558,16.5465465 C96.5869972,17.5975976 97.4078578,19.1111111 97.4078578,20.5405405 Z M108.205332,22.6216216 C108.205332,23.2312312 106.626754,24.6396396 104.353601,24.6396396 C101.112254,24.6396396 99.4073901,22.1801802 99.4073901,19.6786787 C99.4073901,16.8828829 101.385875,14.5285285 104.248363,14.5285285 C106.374181,14.5285285 107.76333,15.6846847 107.76333,16.3153153 C107.76333,16.6726727 107.468662,16.9459459 107.152947,16.9459459 C106.963517,16.9459459 106.774088,16.8618619 106.605706,16.6516517 C106.058466,15.957958 105.153414,15.6216216 104.248363,15.6216216 C102.185688,15.6216216 100.649205,17.3243243 100.649205,19.5735736 C100.649205,21.5495495 101.954163,23.4834835 104.332554,23.4834835 C105.384939,23.4834835 106.416277,23.0840841 106.984565,22.2852853 C107.152947,22.0540541 107.342376,21.96997 107.531805,21.96997 C107.889616,21.96997 108.205332,22.2642643 108.205332,22.6216216 Z M116.982226,22.8738739 C116.982226,22.8738739 116.940131,22.8948949 116.919083,22.9369369 C116.287652,24.009009 114.877456,24.6606607 113.593545,24.6606607 C111.467727,24.6606607 110.183817,23.2102102 110.183817,21.7597598 C110.183817,20.7087087 110.878391,19.6366366 112.435921,19.1531532 C113.740879,18.7537538 115.445744,18.4384384 116.329747,18.2912913 C116.58232,18.2492492 116.666511,18.1861862 116.666511,18.039039 C116.666511,17.9339339 116.687558,17.8078078 116.687558,17.7027027 C116.687558,16.5465465 116.203461,15.6426426 114.498597,15.6426426 C113.362021,15.6426426 112.520112,16.1261261 112.036015,16.6516517 C111.909729,16.7987988 111.741347,16.8618619 111.594013,16.8618619 C111.278297,16.8618619 111.004677,16.6306306 111.004677,16.2942943 C111.004677,15.4954955 112.772685,14.5915916 114.582788,14.5915916 C116.540225,14.5915916 117.86623,15.4534535 117.86623,17.8078078 C117.86623,17.996997 117.86623,18.1861862 117.845182,18.3963964 C117.782039,19.0900901 117.739944,20.036036 117.739944,20.7297297 C117.739944,22.4744745 118.076707,22.8948949 118.918616,23.3363363 C119.086997,23.4204204 119.15014,23.5885886 119.15014,23.7567568 C119.15014,24.0510511 118.897568,24.4084084 118.518709,24.4084084 C118.392423,24.4084084 117.340037,24.1141141 117.04537,22.957958 C117.024322,22.8948949 117.024322,22.8738739 116.982226,22.8738739 Z M113.572498,23.5465465 C115.508887,23.5465465 116.624415,22.0960961 116.624415,20.3093093 C116.624415,20.0780781 116.645463,19.8468468 116.645463,19.5945946 C116.645463,19.4264264 116.58232,19.3633634 116.434986,19.3633634 L116.371843,19.3633634 C113.067353,19.8888889 111.320393,20.3093093 111.320393,21.7807808 C111.320393,22.6636637 112.162301,23.5465465 113.572498,23.5465465 Z M123.254443,23.7777778 L123.254443,23.7987988 C123.254443,24.2402402 122.938728,24.4504505 122.601964,24.4504505 C122.265201,24.4504505 121.949486,24.2402402 121.949486,23.7987988 L121.949486,23.7777778 C121.991581,22.2642643 121.991581,19.1951952 121.991581,16.3153153 C121.991581,13.4144144 121.991581,10.6606607 121.949486,9.7987988 L121.949486,9.77777778 C121.949486,9.31531532 122.286249,9.10510511 122.623012,9.10510511 C122.938728,9.10510511 123.254443,9.31531532 123.254443,9.73573574 L123.254443,9.75675676 C123.233396,10.7237237 123.212348,13.8558559 123.212348,17.03003 C123.212348,19.6366366 123.233396,22.2852853 123.254443,23.7777778 Z M135.420019,22.5795796 C135.420019,23.0630631 133.946679,24.6606607 131.294668,24.6606607 C128.621609,24.6606607 126.537886,22.6636637 126.537886,19.6996997 C126.537886,16.6306306 128.747895,14.6126126 131.231525,14.6126126 C134.115061,14.6126126 135.377923,16.8618619 135.377923,18.0600601 C135.377923,18.8588589 134.893826,19.4474474 133.841441,19.4684685 C133.357343,19.4894895 132.641721,19.4894895 131.862956,19.4894895 C130.284378,19.4894895 128.495323,19.4684685 128.032273,19.4684685 C127.821796,19.4684685 127.779701,19.5525526 127.779701,19.8468468 C127.779701,22.1381381 129.295136,23.5465465 131.315716,23.5465465 C132.852198,23.5465465 133.715154,22.8948949 134.367633,22.1591592 C134.49392,22.033033 134.641254,21.96997 134.788587,21.96997 C135.104303,21.96997 135.420019,22.2432432 135.420019,22.5795796 Z M134.136109,17.8498498 C134.136109,17.2402402 133.399439,15.6636637 131.252572,15.6636637 C129.231993,15.6636637 127.948082,17.4714715 127.948082,18.2492492 C127.948082,18.4594595 128.137512,18.4594595 130.579046,18.4594595 C131.673527,18.4594595 132.852198,18.4594595 133.441534,18.4384384 C133.946679,18.4174174 134.136109,18.1861862 134.136109,17.8498498 Z M153.984097,23.8408408 C153.984097,24.1351351 153.752572,24.4504505 153.247428,24.4714715 C152.973807,24.4924925 151.731993,24.4924925 150.490178,24.4924925 C149.269411,24.4924925 148.027596,24.4924925 147.753976,24.4714715 C145.901777,24.3243243 144.996726,23.4834835 144.933583,22.1171171 C144.891487,21.2342342 144.891487,19.7207207 144.891487,18.0600601 C144.891487,15.5585586 144.912535,12.7837838 144.95463,11.4594595 C144.996726,10.0930931 145.838634,9.27327327 147.396165,9.18918919 C147.796071,9.16816817 148.974743,9.14714715 150.132367,9.14714715 C151.311038,9.14714715 152.447615,9.16816817 152.76333,9.18918919 C153.205332,9.21021021 153.436857,9.5045045 153.436857,9.7987988 C153.436857,10.0930931 153.184284,10.3873874 152.721235,10.3873874 C152.615996,10.3873874 150.616464,10.3663664 149.122077,10.3663664 C146.996258,10.3663664 146.322732,10.3663664 146.217493,11.6486486 C146.175398,12.1531532 146.196445,13.9189189 146.175398,15.1591592 C146.175398,15.5585586 146.385875,15.5585586 146.596352,15.5585586 C147.017306,15.5795796 148.090739,15.5795796 149.164172,15.5795796 C150.237605,15.5795796 151.332086,15.5795796 151.75304,15.5585586 C152.405519,15.5375375 152.468662,16.021021 152.468662,16.1681682 C152.468662,16.4834835 152.21609,16.8198198 151.75304,16.8198198 L151.710945,16.8198198 C151.058466,16.7777778 149.879794,16.7777778 148.785313,16.7777778 C146.175398,16.7777778 146.15435,16.7777778 146.15435,17.1981982 C146.15435,20.4354354 146.15435,21.4234234 146.217493,21.9279279 C146.301684,22.7267267 146.743686,23.1891892 147.859214,23.2732733 C148.217025,23.2942943 149.374649,23.2942943 150.532273,23.2942943 C151.710945,23.2942943 152.889616,23.2942943 153.268475,23.2732733 L153.331618,23.2732733 C153.752572,23.2732733 153.984097,23.5465465 153.984097,23.8408408 Z M164.044902,23.7987988 C164.044902,24.1351351 163.708138,24.4294294 163.371375,24.4294294 C163.202993,24.4294294 163.034612,24.3663664 162.908326,24.1981982 C162.782039,24.03003 159.772217,20.2042042 159.666978,20.2042042 C159.56174,20.2042042 156.594013,23.9249249 156.383536,24.1981982 C156.25725,24.3663664 156.088868,24.4294294 155.920486,24.4294294 C155.583723,24.4294294 155.24696,24.1561562 155.24696,23.8198198 C155.24696,23.6936937 155.289055,23.5675676 155.394294,23.4414414 C156.194107,22.4954955 157.646399,20.8348348 158.761927,19.4894895 C158.82507,19.4054054 158.867166,19.3633634 158.867166,19.3003003 C158.867166,19.1111111 155.962582,15.7897898 155.920486,15.7267267 C155.815248,15.6006006 155.773152,15.4954955 155.773152,15.3693694 C155.773152,15.033033 156.109916,14.7387387 156.446679,14.7387387 C156.594013,14.7387387 156.741347,14.8018018 156.867633,14.9489489 C156.888681,14.990991 159.456501,18.3963964 159.645931,18.3963964 C159.814312,18.3963964 162.361085,15.012012 162.382133,14.96997 C162.508419,14.8018018 162.655753,14.7387387 162.803087,14.7387387 C163.13985,14.7387387 163.497661,15.0540541 163.497661,15.3903904 C163.497661,15.5165165 163.455566,15.6426426 163.350327,15.7477477 C162.803087,16.3783784 160.466791,19.1531532 160.466791,19.3213213 C160.466791,19.3633634 160.487839,19.4264264 160.550982,19.4894895 C161.666511,20.8138138 163.076707,22.4324324 163.897568,23.4204204 C164.002806,23.5465465 164.044902,23.6726727 164.044902,23.7987988 Z M166.802152,29.2852853 L166.802152,29.2642643 C166.823199,27.6456456 166.844247,24.3453453 166.844247,21.3183183 C166.844247,18.8168168 166.823199,16.5255255 166.802152,15.4744745 L166.802152,15.4534535 C166.802152,14.990991 167.096819,14.7807808 167.412535,14.7807808 C167.728251,14.7807808 168.065014,14.990991 168.065014,15.4114114 C168.065014,15.6426426 168.043966,16.021021 168.043966,16.2102102 C168.043966,16.3363363 168.043966,16.4204204 168.086062,16.4204204 C168.128157,16.4204204 168.170253,16.3573574 168.254443,16.2522523 C168.991113,15.2642643 170.21188,14.6336336 171.643124,14.6336336 C174.379326,14.6336336 176.420954,16.6936937 176.420954,19.6576577 C176.420954,22.6636637 174.379326,24.6396396 171.643124,24.6396396 C170.40131,24.6396396 169.159495,24.1351351 168.317587,23.1051051 C168.1913,22.957958 168.128157,22.8528529 168.086062,22.8528529 C168.043966,22.8528529 168.043966,22.9369369 168.043966,23.1891892 C168.043966,23.7357357 168.065014,27.1411411 168.065014,28.6546547 C168.065014,29.5165165 168.065014,30 167.433583,30 C167.117867,30 166.802152,29.7687688 166.802152,29.2852853 Z M171.601029,23.5255255 C173.600561,23.5255255 175.179139,22.012012 175.179139,19.6576577 C175.179139,17.3033033 173.600561,15.7477477 171.601029,15.7477477 C169.601497,15.7477477 168.022919,17.3033033 168.022919,19.6576577 C168.022919,22.012012 169.601497,23.5255255 171.601029,23.5255255 Z M180.925164,23.7777778 L180.925164,23.7987988 C180.925164,24.2402402 180.609448,24.4504505 180.272685,24.4504505 C179.935921,24.4504505 179.620206,24.2402402 179.620206,23.7987988 L179.620206,23.7777778 C179.662301,22.2642643 179.662301,19.1951952 179.662301,16.3153153 C179.662301,13.4144144 179.662301,10.6606607 179.620206,9.7987988 L179.620206,9.77777778 C179.620206,9.31531532 179.956969,9.10510511 180.293732,9.10510511 C180.609448,9.10510511 180.925164,9.31531532 180.925164,9.73573574 L180.925164,9.75675676 C180.904116,10.7237237 180.883068,13.8558559 180.883068,17.03003 C180.883068,19.6366366 180.904116,22.2852853 180.925164,23.7777778 Z M189.007484,24.6606607 C186.208138,24.6606607 184.145463,22.6426426 184.145463,19.6156156 C184.145463,16.6936937 186.208138,14.5915916 189.007484,14.5915916 C191.806829,14.5915916 193.9116,16.6936937 193.9116,19.6156156 C193.9116,22.6426426 191.806829,24.6606607 189.007484,24.6606607 Z M189.007484,23.5255255 C191.028064,23.5255255 192.669785,21.96997 192.669785,19.6156156 C192.669785,17.2402402 191.028064,15.6846847 189.007484,15.6846847 C186.986904,15.6846847 185.36623,17.2402402 185.36623,19.6156156 C185.36623,21.96997 186.986904,23.5255255 189.007484,23.5255255 Z M198.289523,23.966967 L198.289523,23.987988 C198.289523,24.3663664 197.994855,24.5555556 197.679139,24.5555556 C197.342376,24.5555556 197.005613,24.3453453 197.005613,23.966967 L197.005613,23.9459459 C197.047708,22.2432432 197.089804,20.2672673 197.089804,18.4594595 C197.089804,17.2822823 197.068756,16.1681682 197.047708,15.2432432 L197.047708,15.2222222 C197.047708,14.8858859 197.384471,14.6756757 197.700187,14.6756757 C198.015903,14.6756757 198.331618,14.8648649 198.331618,15.2642643 C198.331618,15.5795796 198.310571,15.7267267 198.310571,16.021021 C198.310571,16.0840841 198.331618,16.1261261 198.331618,16.1261261 C198.352666,16.1261261 198.394761,16.0840841 198.415809,16.042042 C199.341908,14.7597598 201.236202,14.6336336 201.488775,14.6336336 C201.930776,14.6336336 202.141254,14.9069069 202.141254,15.2012012 C202.141254,15.4954955 201.909729,15.8108108 201.488775,15.8108108 C199.994387,15.8108108 198.331618,16.7567568 198.289523,18.3753754 C198.268475,18.9219219 198.268475,19.8888889 198.268475,21.0870871 C198.268475,21.9489489 198.268475,22.9369369 198.289523,23.966967 Z M212.854537,22.5795796 C212.854537,23.0630631 211.381197,24.6606607 208.729186,24.6606607 C206.056127,24.6606607 203.972404,22.6636637 203.972404,19.6996997 C203.972404,16.6306306 206.182413,14.6126126 208.666043,14.6126126 C211.549579,14.6126126 212.812442,16.8618619 212.812442,18.0600601 C212.812442,18.8588589 212.328344,19.4474474 211.275959,19.4684685 C210.791862,19.4894895 210.076239,19.4894895 209.297474,19.4894895 C207.718896,19.4894895 205.929841,19.4684685 205.466791,19.4684685 C205.256314,19.4684685 205.214219,19.5525526 205.214219,19.8468468 C205.214219,22.1381381 206.729654,23.5465465 208.750234,23.5465465 C210.286717,23.5465465 211.149673,22.8948949 211.802152,22.1591592 C211.928438,22.033033 212.075772,21.96997 212.223106,21.96997 C212.538821,21.96997 212.854537,22.2432432 212.854537,22.5795796 Z M211.570627,17.8498498 C211.570627,17.2402402 210.833957,15.6636637 208.687091,15.6636637 C206.666511,15.6636637 205.382601,17.4714715 205.382601,18.2492492 C205.382601,18.4594595 205.57203,18.4594595 208.013564,18.4594595 C209.108045,18.4594595 210.286717,18.4594595 210.876052,18.4384384 C211.381197,18.4174174 211.570627,18.1861862 211.570627,17.8498498 Z M217.148269,23.966967 L217.148269,23.987988 C217.148269,24.3663664 216.853601,24.5555556 216.537886,24.5555556 C216.201123,24.5555556 215.864359,24.3453453 215.864359,23.966967 L215.864359,23.9459459 C215.906455,22.2432432 215.94855,20.2672673 215.94855,18.4594595 C215.94855,17.2822823 215.927502,16.1681682 215.906455,15.2432432 L215.906455,15.2222222 C215.906455,14.8858859 216.243218,14.6756757 216.558934,14.6756757 C216.874649,14.6756757 217.190365,14.8648649 217.190365,15.2642643 C217.190365,15.5795796 217.169317,15.7267267 217.169317,16.021021 C217.169317,16.0840841 217.190365,16.1261261 217.190365,16.1261261 C217.211413,16.1261261 217.253508,16.0840841 217.274556,16.042042 C218.200655,14.7597598 220.094949,14.6336336 220.347521,14.6336336 C220.789523,14.6336336 221,14.9069069 221,15.2012012 C221,15.4954955 220.768475,15.8108108 220.347521,15.8108108 C218.853134,15.8108108 217.190365,16.7567568 217.148269,18.3753754 C217.127222,18.9219219 217.127222,19.8888889 217.127222,21.0870871 C217.127222,21.9489489 217.127222,22.9369369 217.148269,23.966967 Z" id="SnapScaleExplorer" fill="url(#linearGradient-2)" fill-rule="nonzero"></path>
        </g>
    </g>
</svg>