<?xml version="1.0" encoding="UTF-8"?>
<svg width="215px" height="30px" viewBox="0 0 215 30" version="1.1" xmlns="http://www.w3.org/2000/svg" xmlns:xlink="http://www.w3.org/1999/xlink">
    <!-- Generator: Sketch 55.1 (78136) - https://sketchapp.com -->
    <title>Group</title>
    <desc>Created with Sketch.</desc>
    <g id="Page-1" stroke="none" stroke-width="1" fill="none" fill-rule="evenodd">
        <g id="Group">
            <path d="M14.4003056,14.7721541 L27.1350842,0.737704918 L1.66552697,0.737704918 L14.4003056,14.7721541 Z M14.4003056,14.8682922 L1.66552697,28.9027414 L27.1350842,28.9027414 L14.4003056,14.8682922 Z" id="123" stroke-opacity="0.85" stroke="#000000" stroke-width="1.47540984"></path>
            <path d="M47.22,24.16 C46.0999944,24.16 45.1233375,24.0066682 44.29,23.7 C43.4566625,23.3933318 42.70667,22.90667 42.04,22.24 L42.46,21.54 C43.1666702,22.1933366 43.8799964,22.6566653 44.6,22.93 C45.3200036,23.2033347 46.1933282,23.34 47.22,23.34 C48.486673,23.34 49.4699965,23.0700027 50.17,22.53 C50.8700035,21.9899973 51.22,21.2333382 51.22,20.26 C51.22,19.6999972 51.0466684,19.2433351 50.7,18.89 C50.3533316,18.5366649 49.9233359,18.2700009 49.41,18.09 C48.8966641,17.9099991 48.2133376,17.720001 47.36,17.52 C46.226661,17.253332 45.3433365,17.0066678 44.71,16.78 C44.0766635,16.5533322 43.5133358,16.1800026 43.02,15.66 C42.5266642,15.1399974 42.28,14.4333378 42.28,13.54 C42.28,12.7533294 42.479998,12.0633363 42.88,11.47 C43.280002,10.8766637 43.8499963,10.4166683 44.59,10.09 C45.3300037,9.7633317 46.199995,9.6 47.2,9.6 C49.1733432,9.6 50.7666606,10.2399936 51.98,11.52 L51.56,12.22 C50.8799966,11.5933302 50.1933368,11.1366681 49.5,10.85 C48.8066632,10.5633319 48.04,10.42 47.2,10.42 C45.9199936,10.42 44.9233369,10.6966639 44.21,11.25 C43.4966631,11.8033361 43.14,12.579995 43.14,13.58 C43.14,14.4333376 43.4499969,15.0666646 44.07,15.48 C44.6900031,15.8933354 45.5599944,16.2399986 46.68,16.52 L47.58,16.74 C48.5533382,16.9666678 49.339997,17.1899989 49.94,17.41 C50.54,17.6300011 51.0499979,17.973331 51.47,18.44 C51.8900021,18.906669 52.1,19.5333294 52.1,20.32 C52.1,21.0666704 51.900002,21.7299971 51.5,22.31 C51.099998,22.8900029 50.5300037,23.3433317 49.79,23.67 C49.0499963,23.9966683 48.1933382,24.16 47.22,24.16 Z M59.14,13.76 C61.5666788,13.76 62.78,15.026654 62.78,17.56 L62.78,24 L61.94,24 L61.94,17.64 C61.94,16.573328 61.7233355,15.7933358 61.29,15.3 C60.8566645,14.8066642 60.1666714,14.56 59.22,14.56 C58.1399946,14.56 57.2766699,14.8866634 56.63,15.54 C55.9833301,16.1933366 55.66,17.0733278 55.66,18.18 L55.66,24 L54.84,24 L54.84,16.76 C54.84,15.7199948 54.7866672,14.800004 54.68,14 L55.48,14 L55.62,15.9 C55.9000014,15.2066632 56.3533302,14.6766685 56.98,14.31 C57.6066698,13.9433315 58.3266626,13.76 59.14,13.76 Z M74.38,14 L74.38,24 L73.54,24 L73.54,22 C73.2466652,22.6933368 72.7966697,23.2233315 72.19,23.59 C71.5833303,23.9566685 70.8600042,24.14 70.02,24.14 C69.1266622,24.14 68.3433367,23.9300021 67.67,23.51 C66.9966633,23.0899979 66.4766685,22.4900039 66.11,21.71 C65.7433315,20.9299961 65.56,20.0200052 65.56,18.98 C65.56,17.9399948 65.7466648,17.0266706 66.12,16.24 C66.4933352,15.4533294 67.0166633,14.8433355 67.69,14.41 C68.3633367,13.9766645 69.1399956,13.76 70.02,13.76 C70.8600042,13.76 71.5833303,13.9399982 72.19,14.3 C72.7966697,14.6600018 73.2466652,15.1866632 73.54,15.88 L73.54,14 L74.38,14 Z M70.04,23.32 C71.1466722,23.32 72.0066636,22.9366705 72.62,22.17 C73.2333364,21.4033295 73.54,20.3266736 73.54,18.94 C73.54,17.539993 73.2333364,16.4633371 72.62,15.71 C72.0066636,14.9566629 71.1400056,14.58 70.02,14.58 C68.8999944,14.58 68.0266698,14.9666628 67.4,15.74 C66.7733302,16.5133372 66.46,17.5933264 66.46,18.98 C66.46,20.3533402 66.7766635,21.4199962 67.41,22.18 C68.0433365,22.9400038 68.9199944,23.32 70.04,23.32 Z M82.26,13.76 C83.1400044,13.76 83.9166633,13.9766645 84.59,14.41 C85.2633367,14.8433355 85.7866648,15.4533294 86.16,16.24 C86.5333352,17.0266706 86.72,17.9399948 86.72,18.98 C86.72,20.0200052 86.5366685,20.9266628 86.17,21.7 C85.8033315,22.4733372 85.2800034,23.0733312 84.6,23.5 C83.9199966,23.9266688 83.1400044,24.14 82.26,24.14 C81.393329,24.14 80.660003,23.9500019 80.06,23.57 C79.459997,23.1899981 79.0133348,22.633337 78.72,21.9 L78.72,28.32 L77.9,28.32 L77.9,16.76 C77.9,15.7199948 77.8466672,14.800004 77.74,14 L78.54,14 L78.7,16.04 C78.9800014,15.306663 79.4266636,14.7433353 80.04,14.35 C80.6533364,13.9566647 81.393329,13.76 82.26,13.76 Z M82.26,23.32 C83.3800056,23.32 84.2499969,22.9400038 84.87,22.18 C85.4900031,21.4199962 85.8,20.3533402 85.8,18.98 C85.8,17.5933264 85.4900031,16.5133372 84.87,15.74 C84.2499969,14.9666628 83.3866722,14.58 82.28,14.58 C81.1333276,14.58 80.2566697,14.9566629 79.65,15.71 C79.0433303,16.4633371 78.74,17.539993 78.74,18.94 C78.74,20.340007 79.0433303,21.4199962 79.65,22.18 C80.2566697,22.9400038 81.126661,23.32 82.26,23.32 Z M94.02,24.16 C92.8999944,24.16 91.9233375,24.0066682 91.09,23.7 C90.2566625,23.3933318 89.50667,22.90667 88.84,22.24 L89.26,21.54 C89.9666702,22.1933366 90.6799964,22.6566653 91.4,22.93 C92.1200036,23.2033347 92.9933282,23.34 94.02,23.34 C95.286673,23.34 96.2699965,23.0700027 96.97,22.53 C97.6700035,21.9899973 98.02,21.2333382 98.02,20.26 C98.02,19.6999972 97.8466684,19.2433351 97.5,18.89 C97.1533316,18.5366649 96.7233359,18.2700009 96.21,18.09 C95.6966641,17.9099991 95.0133376,17.720001 94.16,17.52 C93.026661,17.253332 92.1433365,17.0066678 91.51,16.78 C90.8766635,16.5533322 90.3133358,16.1800026 89.82,15.66 C89.3266642,15.1399974 89.08,14.4333378 89.08,13.54 C89.08,12.7533294 89.279998,12.0633363 89.68,11.47 C90.080002,10.8766637 90.6499963,10.4166683 91.39,10.09 C92.1300037,9.7633317 92.999995,9.6 94,9.6 C95.9733432,9.6 97.5666606,10.2399936 98.78,11.52 L98.36,12.22 C97.6799966,11.5933302 96.9933368,11.1366681 96.3,10.85 C95.6066632,10.5633319 94.84,10.42 94,10.42 C92.7199936,10.42 91.7233369,10.6966639 91.01,11.25 C90.2966631,11.8033361 89.94,12.579995 89.94,13.58 C89.94,14.4333376 90.2499969,15.0666646 90.87,15.48 C91.4900031,15.8933354 92.3599944,16.2399986 93.48,16.52 L94.38,16.74 C95.3533382,16.9666678 96.139997,17.1899989 96.74,17.41 C97.34,17.6300011 97.8499979,17.973331 98.27,18.44 C98.6900021,18.906669 98.9,19.5333294 98.9,20.32 C98.9,21.0666704 98.700002,21.7299971 98.3,22.31 C97.899998,22.8900029 97.3300037,23.3433317 96.59,23.67 C95.8499963,23.9966683 94.9933382,24.16 94.02,24.16 Z M105.54,24.14 C104.619995,24.14 103.81667,23.9266688 103.13,23.5 C102.44333,23.0733312 101.910002,22.4700039 101.53,21.69 C101.149998,20.9099961 100.96,20.0066718 100.96,18.98 C100.96,17.9533282 101.149998,17.0433373 101.53,16.25 C101.910002,15.4566627 102.446663,14.8433355 103.14,14.41 C103.833337,13.9766645 104.639995,13.76 105.56,13.76 C106.22667,13.76 106.859997,13.8799988 107.46,14.12 C108.060003,14.3600012 108.559998,14.6866646 108.96,15.1 L108.56,15.82 C108.013331,15.3799978 107.506669,15.060001 107.04,14.86 C106.573331,14.659999 106.080003,14.56 105.56,14.56 C104.413328,14.56 103.510003,14.9566627 102.85,15.75 C102.189997,16.5433373 101.86,17.6266598 101.86,19 C101.86,20.3600068 102.186663,21.4199962 102.84,22.18 C103.493337,22.9400038 104.393328,23.32 105.54,23.32 C106.060003,23.32 106.556664,23.2233343 107.03,23.03 C107.503336,22.8366657 108.013331,22.5200022 108.56,22.08 L108.96,22.78 C108.533331,23.2066688 108.01667,23.5399988 107.41,23.78 C106.80333,24.0200012 106.180003,24.14 105.54,24.14 Z M119.52,14 L119.52,24 L118.68,24 L118.68,22 C118.386665,22.6933368 117.93667,23.2233315 117.33,23.59 C116.72333,23.9566685 116.000004,24.14 115.16,24.14 C114.266662,24.14 113.483337,23.9300021 112.81,23.51 C112.136663,23.0899979 111.616668,22.4900039 111.25,21.71 C110.883331,20.9299961 110.7,20.0200052 110.7,18.98 C110.7,17.9399948 110.886665,17.0266706 111.26,16.24 C111.633335,15.4533294 112.156663,14.8433355 112.83,14.41 C113.503337,13.9766645 114.279996,13.76 115.16,13.76 C116.000004,13.76 116.72333,13.9399982 117.33,14.3 C117.93667,14.6600018 118.386665,15.1866632 118.68,15.88 L118.68,14 L119.52,14 Z M115.18,23.32 C116.286672,23.32 117.146664,22.9366705 117.76,22.17 C118.373336,21.4033295 118.68,20.3266736 118.68,18.94 C118.68,17.539993 118.373336,16.4633371 117.76,15.71 C117.146664,14.9566629 116.280006,14.58 115.16,14.58 C114.039994,14.58 113.16667,14.9666628 112.54,15.74 C111.91333,16.5133372 111.6,17.5933264 111.6,18.98 C111.6,20.3533402 111.916663,21.4199962 112.55,22.18 C113.183336,22.9400038 114.059994,23.32 115.18,23.32 Z M123.04,24 L123.04,9.28 L123.86,9.28 L123.86,24 L123.04,24 Z M127.66,18.78 L127.66,18.96 C127.66,20.360007 127.989997,21.4366629 128.65,22.19 C129.310003,22.9433371 130.253327,23.32 131.48,23.32 C132.10667,23.32 132.693331,23.2166677 133.24,23.01 C133.786669,22.8033323 134.326664,22.4733356 134.86,22.02 L135.26,22.74 C134.833331,23.1666688 134.283337,23.5066654 133.61,23.76 C132.936663,24.0133346 132.240004,24.14 131.52,24.14 C130.039993,24.14 128.870004,23.6800046 128.01,22.76 C127.149996,21.8399954 126.72,20.5733414 126.72,18.96 C126.72,17.9333282 126.913331,17.0266706 127.3,16.24 C127.686669,15.4533294 128.229996,14.8433355 128.93,14.41 C129.630003,13.9766645 130.433329,13.76 131.34,13.76 C132.620006,13.76 133.62333,14.1799958 134.35,15.02 C135.07667,15.8600042 135.44,17.0333258 135.44,18.54 L135.44,18.78 L127.66,18.78 Z M131.34,14.52 C130.353328,14.52 129.543336,14.8233303 128.91,15.43 C128.276663,16.0366697 127.880001,16.8799946 127.72,17.96 L134.6,17.96 C134.52,16.8533278 134.200003,16.0033363 133.64,15.41 C133.079997,14.8166637 132.313338,14.52 131.34,14.52 Z M143.4,24 L143.4,9.76 L151.96,9.76 L151.96,10.54 L144.24,10.54 L144.24,16.38 L151.56,16.38 L151.56,17.18 L144.24,17.18 L144.24,23.22 L151.96,23.22 L151.96,24 L143.4,24 Z M158.88,18.84 L162.94,24 L161.88,24 L158.32,19.56 L154.78,24 L153.7,24 L157.8,18.84 L153.9,14 L155,14 L158.32,18.16 L161.64,14 L162.74,14 L158.88,18.84 Z M169.66,13.76 C170.540004,13.76 171.316663,13.9766645 171.99,14.41 C172.663337,14.8433355 173.186665,15.4533294 173.56,16.24 C173.933335,17.0266706 174.12,17.9399948 174.12,18.98 C174.12,20.0200052 173.936668,20.9266628 173.57,21.7 C173.203331,22.4733372 172.680003,23.0733312 172,23.5 C171.319997,23.9266688 170.540004,24.14 169.66,24.14 C168.793329,24.14 168.060003,23.9500019 167.46,23.57 C166.859997,23.1899981 166.413335,22.633337 166.12,21.9 L166.12,28.32 L165.3,28.32 L165.3,16.76 C165.3,15.7199948 165.246667,14.800004 165.14,14 L165.94,14 L166.1,16.04 C166.380001,15.306663 166.826664,14.7433353 167.44,14.35 C168.053336,13.9566647 168.793329,13.76 169.66,13.76 Z M169.66,23.32 C170.780006,23.32 171.649997,22.9400038 172.27,22.18 C172.890003,21.4199962 173.2,20.3533402 173.2,18.98 C173.2,17.5933264 172.890003,16.5133372 172.27,15.74 C171.649997,14.9666628 170.786672,14.58 169.68,14.58 C168.533328,14.58 167.65667,14.9566629 167.05,15.71 C166.44333,16.4633371 166.14,17.539993 166.14,18.94 C166.14,20.340007 166.44333,21.4199962 167.05,22.18 C167.65667,22.9400038 168.526661,23.32 169.66,23.32 Z M176.96,24 L176.96,9.28 L177.78,9.28 L177.78,24 L176.96,24 Z M185.1,24.14 C184.219996,24.14 183.440003,23.9266688 182.76,23.5 C182.079997,23.0733312 181.556668,22.4666706 181.19,21.68 C180.823331,20.8933294 180.64,19.9800052 180.64,18.94 C180.64,17.8999948 180.823331,16.9900039 181.19,16.21 C181.556668,15.4299961 182.079997,14.8266688 182.76,14.4 C183.440003,13.9733312 184.219996,13.76 185.1,13.76 C185.980004,13.76 186.756663,13.9733312 187.43,14.4 C188.103337,14.8266688 188.623331,15.4299961 188.99,16.21 C189.356668,16.9900039 189.54,17.8999948 189.54,18.94 C189.54,19.9800052 189.356668,20.8933294 188.99,21.68 C188.623331,22.4666706 188.103337,23.0733312 187.43,23.5 C186.756663,23.9266688 185.980004,24.14 185.1,24.14 Z M185.08,23.32 C186.213339,23.32 187.089997,22.9400038 187.71,22.18 C188.330003,21.4199962 188.64,20.340007 188.64,18.94 C188.64,17.58 188.32667,16.5133372 187.7,15.74 C187.07333,14.9666628 186.206672,14.58 185.1,14.58 C183.993328,14.58 183.123336,14.9633295 182.49,15.73 C181.856663,16.4966705 181.54,17.5666598 181.54,18.94 C181.54,20.3533404 181.846664,21.4366629 182.46,22.19 C183.073336,22.9433371 183.946661,23.32 185.08,23.32 Z M196.36,13.76 C196.733335,13.76 197.013332,13.7799998 197.2,13.82 L197.14,14.58 C196.979999,14.5533332 196.713335,14.54 196.34,14.54 C195.606663,14.54 195.006669,14.7099983 194.54,15.05 C194.073331,15.3900017 193.733334,15.8233307 193.52,16.35 C193.306666,16.8766693 193.2,17.4266638 193.2,18 L193.2,24 L192.38,24 L192.38,16.76 C192.38,15.7199948 192.326667,14.800004 192.22,14 L193.02,14 L193.16,15.88 C193.426668,15.1866632 193.84333,14.6600018 194.41,14.3 C194.976669,13.9399982 195.626663,13.76 196.36,13.76 Z M199.16,18.78 L199.16,18.96 C199.16,20.360007 199.489997,21.4366629 200.15,22.19 C200.810003,22.9433371 201.753327,23.32 202.98,23.32 C203.60667,23.32 204.193331,23.2166677 204.74,23.01 C205.286669,22.8033323 205.826664,22.4733356 206.36,22.02 L206.76,22.74 C206.333331,23.1666688 205.783337,23.5066654 205.11,23.76 C204.436663,24.0133346 203.740004,24.14 203.02,24.14 C201.539993,24.14 200.370004,23.6800046 199.51,22.76 C198.649996,21.8399954 198.22,20.5733414 198.22,18.96 C198.22,17.9333282 198.413331,17.0266706 198.8,16.24 C199.186669,15.4533294 199.729996,14.8433355 200.43,14.41 C201.130003,13.9766645 201.933329,13.76 202.84,13.76 C204.120006,13.76 205.12333,14.1799958 205.85,15.02 C206.57667,15.8600042 206.94,17.0333258 206.94,18.54 L206.94,18.78 L199.16,18.78 Z M202.84,14.52 C201.853328,14.52 201.043336,14.8233303 200.41,15.43 C199.776663,16.0366697 199.380001,16.8799946 199.22,17.96 L206.1,17.96 C206.02,16.8533278 205.700003,16.0033363 205.14,15.41 C204.579997,14.8166637 203.813338,14.52 202.84,14.52 Z M213.7,13.76 C214.073335,13.76 214.353332,13.7799998 214.54,13.82 L214.48,14.58 C214.319999,14.5533332 214.053335,14.54 213.68,14.54 C212.946663,14.54 212.346669,14.7099983 211.88,15.05 C211.413331,15.3900017 211.073334,15.8233307 210.86,16.35 C210.646666,16.8766693 210.54,17.4266638 210.54,18 L210.54,24 L209.72,24 L209.72,16.76 C209.72,15.7199948 209.666667,14.800004 209.56,14 L210.36,14 L210.5,15.88 C210.766668,15.1866632 211.18333,14.6600018 211.75,14.3 C212.316669,13.9399982 212.966663,13.76 213.7,13.76 Z" id="SnapScaleExplorer" fill-opacity="0.85" fill="#000000" fill-rule="nonzero"></path>
        </g>
    </g>
</svg>