<?xml version="1.0" encoding="UTF-8"?>
<svg width="264px" height="34px" viewBox="0 0 264 34" version="1.1" xmlns="http://www.w3.org/2000/svg" xmlns:xlink="http://www.w3.org/1999/xlink">
    <!-- Generator: Sketch 55.1 (78136) - https://sketchapp.com -->
    <title>logo-title</title>
    <desc>Created with Sketch.</desc>
    <defs>
        <path d="M7.464,24.192 C4.8239868,24.192 2.71200792,23.4800071 1.128,22.056 L1.896,20.544 C2.72800416,21.2480035 3.57999564,21.7519985 4.452,22.056 C5.32400436,22.3600015 6.33599424,22.512 7.488,22.512 C8.8480068,22.512 9.89599632,22.2480026 10.632,21.72 C11.3680037,21.1919974 11.736,20.4480048 11.736,19.488 C11.736,18.9279972 11.5600018,18.4720018 11.208,18.12 C10.8559982,17.7679982 10.3920029,17.488001 9.816,17.28 C9.23999712,17.071999 8.46400488,16.8560011 7.488,16.632 C6.17599344,16.3279985 5.1000042,16.0080017 4.26,15.672 C3.4199958,15.3359983 2.7400026,14.8560031 2.22,14.232 C1.6999974,13.6079969 1.44,12.792005 1.44,11.784 C1.44,10.8239952 1.69199748,9.97200372 2.196,9.228 C2.70000252,8.48399628 3.41999532,7.90800204 4.356,7.5 C5.29200468,7.09199796 6.37599384,6.888 7.608,6.888 C8.77600584,6.888 9.86799492,7.07199816 10.884,7.44 C11.9000051,7.80800184 12.7599965,8.33599656 13.464,9.024 L12.72,10.536 C11.919996,9.84799656 11.1080041,9.34800156 10.284,9.036 C9.45999588,8.72399844 8.5680048,8.568 7.608,8.568 C6.29599344,8.568 5.26800372,8.84399724 4.524,9.396 C3.77999628,9.94800276 3.408,10.719995 3.408,11.712 C3.408,12.5600042 3.73599672,13.1999978 4.392,13.632 C5.04800328,14.0640022 6.03999336,14.4319985 7.368,14.736 C8.82400728,15.0880018 9.96799584,15.4119985 10.8,15.708 C11.6320042,16.0040015 12.3239972,16.447997 12.876,17.04 C13.4280028,17.632003 13.704,18.423995 13.704,19.416 C13.704,20.3760048 13.4520025,21.2159964 12.948,21.936 C12.4439975,22.6560036 11.7200047,23.211998 10.776,23.604 C9.83199528,23.996002 8.72800632,24.192 7.464,24.192 Z M22.488,12.024 C25.288014,12.024 26.688,13.5679846 26.688,16.656 L26.688,24 L24.744,24 L24.744,16.776 C24.744,15.6879946 24.5320021,14.8960025 24.108,14.4 C23.6839979,13.9039975 23.0080046,13.656 22.08,13.656 C21.0079946,13.656 20.1520032,13.9839967 19.512,14.64 C18.8719968,15.2960033 18.552,16.1839944 18.552,17.304 L18.552,24 L16.608,24 L16.608,12.312 L18.528,12.312 L18.528,14.232 C18.9120019,13.5119964 19.4479966,12.9640019 20.136,12.588 C20.8240034,12.2119981 21.608,12.024 22.488,12.024 Z M34.992,12.024 C36.4800074,12.024 37.5879964,12.4039962 38.316,13.164 C39.0440036,13.9240038 39.408,15.0799922 39.408,16.632 L39.408,24 L37.512,24 L37.512,22.008 C37.2079985,22.6960034 36.7440031,23.2279981 36.12,23.604 C35.4959969,23.9800019 34.7760041,24.168 33.96,24.168 C33.2079962,24.168 32.5160032,24.0160015 31.884,23.712 C31.2519968,23.4079985 30.7520018,22.9840027 30.384,22.44 C30.0159982,21.8959973 29.832,21.2960033 29.832,20.64 C29.832,19.7599956 30.0559978,19.0760024 30.504,18.588 C30.9520022,18.0999976 31.6879949,17.7480011 32.712,17.532 C33.7360051,17.3159989 35.1599909,17.208 36.984,17.208 L37.512,17.208 L37.512,16.416 C37.512,15.4399951 37.312002,14.7320022 36.912,14.292 C36.511998,13.8519978 35.8640045,13.632 34.968,13.632 C33.6239933,13.632 32.2880066,14.0479958 30.96,14.88 L30.312,13.464 C30.920003,13.0319978 31.6519957,12.6840013 32.508,12.42 C33.3640043,12.1559987 34.191996,12.024 34.992,12.024 Z M34.224,22.632 C35.1840048,22.632 35.9719969,22.3080032 36.588,21.66 C37.2040031,21.0119968 37.512,20.1760051 37.512,19.152 L37.512,18.456 L37.08,18.456 C35.671993,18.456 34.6000037,18.5159994 33.864,18.636 C33.1279963,18.7560006 32.6040016,18.956 32.292,19.236 C31.9799984,19.5160014 31.824,19.9279973 31.824,20.472 C31.824,21.0960031 32.0519977,21.611998 32.508,22.02 C32.9640023,22.428002 33.5359966,22.632 34.224,22.632 Z M48.84,12.024 C49.8640051,12.024 50.7679961,12.2799974 51.552,12.792 C52.3360039,13.3040026 52.9439978,14.0199954 53.376,14.94 C53.8080022,15.8600046 54.024,16.9279939 54.024,18.144 C54.024,19.3600061 53.8080022,20.4199955 53.376,21.324 C52.9439978,22.2280045 52.3400039,22.9279975 51.564,23.424 C50.7879961,23.9200025 49.8800052,24.168 48.84,24.168 C47.9279954,24.168 47.1320034,23.968002 46.452,23.568 C45.7719966,23.167998 45.2560018,22.6000037 44.904,21.864 L44.904,28.32 L42.96,28.32 L42.96,12.312 L44.904,12.312 L44.904,14.328 C45.2560018,13.5919963 45.7719966,13.024 46.452,12.624 C47.1320034,12.223998 47.9279954,12.024 48.84,12.024 Z M48.456,22.56 C49.5920057,22.56 50.4719969,22.1760038 51.096,21.408 C51.7200031,20.6399962 52.032,19.552007 52.032,18.144 C52.032,16.735993 51.7200031,15.636004 51.096,14.844 C50.4719969,14.051996 49.5920057,13.656 48.456,13.656 C47.3199943,13.656 46.4440031,14.0399962 45.828,14.808 C45.2119969,15.5760038 44.904,16.6719929 44.904,18.096 C44.904,19.5200071 45.2119969,20.6199961 45.828,21.396 C46.4440031,22.1720039 47.3199943,22.56 48.456,22.56 Z M62.592,24.192 C59.9519868,24.192 57.8400079,23.4800071 56.256,22.056 L57.024,20.544 C57.8560042,21.2480035 58.7079956,21.7519985 59.58,22.056 C60.4520044,22.3600015 61.4639942,22.512 62.616,22.512 C63.9760068,22.512 65.0239963,22.2480026 65.76,21.72 C66.4960037,21.1919974 66.864,20.4480048 66.864,19.488 C66.864,18.9279972 66.6880018,18.4720018 66.336,18.12 C65.9839982,17.7679982 65.5200029,17.488001 64.944,17.28 C64.3679971,17.071999 63.5920049,16.8560011 62.616,16.632 C61.3039934,16.3279985 60.2280042,16.0080017 59.388,15.672 C58.5479958,15.3359983 57.8680026,14.8560031 57.348,14.232 C56.8279974,13.6079969 56.568,12.792005 56.568,11.784 C56.568,10.8239952 56.8199975,9.97200372 57.324,9.228 C57.8280025,8.48399628 58.5479953,7.90800204 59.484,7.5 C60.4200047,7.09199796 61.5039938,6.888 62.736,6.888 C63.9040058,6.888 64.9959949,7.07199816 66.012,7.44 C67.0280051,7.80800184 67.8879965,8.33599656 68.592,9.024 L67.848,10.536 C67.047996,9.84799656 66.2360041,9.34800156 65.412,9.036 C64.5879959,8.72399844 63.6960048,8.568 62.736,8.568 C61.4239934,8.568 60.3960037,8.84399724 59.652,9.396 C58.9079963,9.94800276 58.536,10.719995 58.536,11.712 C58.536,12.5600042 58.8639967,13.1999978 59.52,13.632 C60.1760033,14.0640022 61.1679934,14.4319985 62.496,14.736 C63.9520073,15.0880018 65.0959958,15.4119985 65.928,15.708 C66.7600042,16.0040015 67.4519972,16.447997 68.004,17.04 C68.5560028,17.632003 68.832,18.423995 68.832,19.416 C68.832,20.3760048 68.5800025,21.2159964 68.076,21.936 C67.5719975,22.6560036 66.8480047,23.211998 65.904,23.604 C64.9599953,23.996002 63.8560063,24.192 62.592,24.192 Z M76.68,24.168 C75.5279942,24.168 74.5280042,23.9200025 73.68,23.424 C72.8319958,22.9279975 72.1800023,22.2280045 71.724,21.324 C71.2679977,20.4199955 71.04,19.3600061 71.04,18.144 C71.04,16.9279939 71.2759976,15.8600046 71.748,14.94 C72.2200024,14.0199954 72.8839957,13.3040026 73.74,12.792 C74.5960043,12.2799974 75.5999942,12.024 76.752,12.024 C77.5360039,12.024 78.3039962,12.1639986 79.056,12.444 C79.8080038,12.7240014 80.4159977,13.0959977 80.88,13.56 L80.232,15 C79.1279945,14.1039955 78.0080057,13.656 76.872,13.656 C75.671994,13.656 74.7360034,14.0479961 74.064,14.832 C73.3919966,15.6160039 73.056,16.7199929 73.056,18.144 C73.056,19.552007 73.3919966,20.6399962 74.064,21.408 C74.7360034,22.1760038 75.671994,22.56 76.872,22.56 C78.0080057,22.56 79.1279945,22.1120045 80.232,21.216 L80.88,22.656 C80.3839975,23.1200023 79.7600038,23.4879986 79.008,23.76 C78.2559962,24.0320014 77.480004,24.168 76.68,24.168 Z M87.984,12.024 C89.4720074,12.024 90.5799964,12.4039962 91.308,13.164 C92.0360036,13.9240038 92.4,15.0799922 92.4,16.632 L92.4,24 L90.504,24 L90.504,22.008 C90.1999985,22.6960034 89.7360031,23.2279981 89.112,23.604 C88.4879969,23.9800019 87.7680041,24.168 86.952,24.168 C86.1999962,24.168 85.5080032,24.0160015 84.876,23.712 C84.2439968,23.4079985 83.7440018,22.9840027 83.376,22.44 C83.0079982,21.8959973 82.824,21.2960033 82.824,20.64 C82.824,19.7599956 83.0479978,19.0760024 83.496,18.588 C83.9440022,18.0999976 84.6799949,17.7480011 85.704,17.532 C86.7280051,17.3159989 88.1519909,17.208 89.976,17.208 L90.504,17.208 L90.504,16.416 C90.504,15.4399951 90.304002,14.7320022 89.904,14.292 C89.503998,13.8519978 88.8560045,13.632 87.96,13.632 C86.6159933,13.632 85.2800066,14.0479958 83.952,14.88 L83.304,13.464 C83.912003,13.0319978 84.6439957,12.6840013 85.5,12.42 C86.3560043,12.1559987 87.183996,12.024 87.984,12.024 Z M87.216,22.632 C88.1760048,22.632 88.9639969,22.3080032 89.58,21.66 C90.1960031,21.0119968 90.504,20.1760051 90.504,19.152 L90.504,18.456 L90.072,18.456 C88.663993,18.456 87.5920037,18.5159994 86.856,18.636 C86.1199963,18.7560006 85.5960016,18.956 85.284,19.236 C84.9719984,19.5160014 84.816,19.9279973 84.816,20.472 C84.816,21.0960031 85.0439977,21.611998 85.5,22.02 C85.9560023,22.428002 86.5279966,22.632 87.216,22.632 Z M95.952,24 L95.952,7.08 L97.896,7.08 L97.896,24 L95.952,24 Z M111.312,18.456 L102.768,18.456 C102.832,19.8160068 103.199997,20.8439965 103.872,21.54 C104.544003,22.2360035 105.495994,22.584 106.728,22.584 C108.088007,22.584 109.335994,22.1200046 110.472,21.192 L111.12,22.608 C110.607997,23.0880024 109.952004,23.4679986 109.152,23.748 C108.351996,24.0280014 107.536004,24.168 106.704,24.168 C104.879991,24.168 103.444005,23.6320054 102.396,22.56 C101.347995,21.4879946 100.824,20.0080094 100.824,18.12 C100.824,16.919994 101.055998,15.8600046 101.52,14.94 C101.984002,14.0199954 102.635996,13.3040026 103.476,12.792 C104.316004,12.2799974 105.271995,12.024 106.344,12.024 C107.896008,12.024 109.111996,12.5319949 109.992,13.548 C110.872004,14.5640051 111.312,15.9599911 111.312,17.736 L111.312,18.456 Z M106.368,13.536 C105.343995,13.536 104.524003,13.8559968 103.908,14.496 C103.291997,15.1360032 102.928001,16.0399942 102.816,17.208 L109.608,17.208 C109.576,16.0239941 109.280003,15.1160032 108.72,14.484 C108.159997,13.8519968 107.376005,13.536 106.368,13.536 Z M120.648,24 L120.648,7.08 L131.352,7.08 L131.352,8.712 L122.592,8.712 L122.592,14.592 L130.872,14.592 L130.872,16.224 L122.592,16.224 L122.592,22.368 L131.352,22.368 L131.352,24 L120.648,24 Z M139.896,17.976 L144.744,24 L142.392,24 L138.744,19.44 L135.12,24 L132.744,24 L137.592,17.976 L133.032,12.312 L135.384,12.312 L138.744,16.56 L142.104,12.312 L144.48,12.312 L139.896,17.976 Z M152.64,12.024 C153.664005,12.024 154.567996,12.2799974 155.352,12.792 C156.136004,13.3040026 156.743998,14.0199954 157.176,14.94 C157.608002,15.8600046 157.824,16.9279939 157.824,18.144 C157.824,19.3600061 157.608002,20.4199955 157.176,21.324 C156.743998,22.2280045 156.140004,22.9279975 155.364,23.424 C154.587996,23.9200025 153.680005,24.168 152.64,24.168 C151.727995,24.168 150.932003,23.968002 150.252,23.568 C149.571997,23.167998 149.056002,22.6000037 148.704,21.864 L148.704,28.32 L146.76,28.32 L146.76,12.312 L148.704,12.312 L148.704,14.328 C149.056002,13.5919963 149.571997,13.024 150.252,12.624 C150.932003,12.223998 151.727995,12.024 152.64,12.024 Z M152.256,22.56 C153.392006,22.56 154.271997,22.1760038 154.896,21.408 C155.520003,20.6399962 155.832,19.552007 155.832,18.144 C155.832,16.735993 155.520003,15.636004 154.896,14.844 C154.271997,14.051996 153.392006,13.656 152.256,13.656 C151.119994,13.656 150.244003,14.0399962 149.628,14.808 C149.011997,15.5760038 148.704,16.6719929 148.704,18.096 C148.704,19.5200071 149.011997,20.6199961 149.628,21.396 C150.244003,22.1720039 151.119994,22.56 152.256,22.56 Z M160.728,24 L160.728,7.08 L162.672,7.08 L162.672,24 L160.728,24 Z M171.144,24.168 C170.039994,24.168 169.068004,23.9200025 168.228,23.424 C167.387996,22.9279975 166.740002,22.2200046 166.284,21.3 C165.827998,20.3799954 165.6,19.3120061 165.6,18.096 C165.6,16.8799939 165.827998,15.8120046 166.284,14.892 C166.740002,13.9719954 167.387996,13.2640025 168.228,12.768 C169.068004,12.2719975 170.039994,12.024 171.144,12.024 C172.248006,12.024 173.223996,12.2719975 174.072,12.768 C174.920004,13.2640025 175.571998,13.9719954 176.028,14.892 C176.484002,15.8120046 176.712,16.8799939 176.712,18.096 C176.712,19.3120061 176.484002,20.3799954 176.028,21.3 C175.571998,22.2200046 174.920004,22.9279975 174.072,23.424 C173.223996,23.9200025 172.248006,24.168 171.144,24.168 Z M171.144,22.56 C172.296006,22.56 173.179997,22.1800038 173.796,21.42 C174.412003,20.6599962 174.72,19.5520073 174.72,18.096 C174.72,16.6719929 174.408003,15.5720039 173.784,14.796 C173.159997,14.0199961 172.280006,13.632 171.144,13.632 C170.007994,13.632 169.128003,14.0199961 168.504,14.796 C167.879997,15.5720039 167.568,16.6719929 167.568,18.096 C167.568,19.5360072 167.875997,20.6399962 168.492,21.408 C169.108003,22.1760038 169.991994,22.56 171.144,22.56 Z M186.24,13.704 L184.968,13.824 C183.767994,13.9360006 182.900003,14.3119968 182.364,14.952 C181.827997,15.5920032 181.56,16.3839953 181.56,17.328 L181.56,24 L179.616,24 L179.616,12.312 L181.512,12.312 L181.512,14.352 C182.168003,12.9919932 183.45599,12.2320008 185.376,12.072 L186.072,12.024 L186.24,13.704 Z M197.64,18.456 L189.096,18.456 C189.16,19.8160068 189.527997,20.8439965 190.2,21.54 C190.872003,22.2360035 191.823994,22.584 193.056,22.584 C194.416007,22.584 195.663994,22.1200046 196.8,21.192 L197.448,22.608 C196.935997,23.0880024 196.280004,23.4679986 195.48,23.748 C194.679996,24.0280014 193.864004,24.168 193.032,24.168 C191.207991,24.168 189.772005,23.6320054 188.724,22.56 C187.675995,21.4879946 187.152,20.0080094 187.152,18.12 C187.152,16.919994 187.383998,15.8600046 187.848,14.94 C188.312002,14.0199954 188.963996,13.3040026 189.804,12.792 C190.644004,12.2799974 191.599995,12.024 192.672,12.024 C194.224008,12.024 195.439996,12.5319949 196.32,13.548 C197.200004,14.5640051 197.64,15.9599911 197.64,17.736 L197.64,18.456 Z M192.696,13.536 C191.671995,13.536 190.852003,13.8559968 190.236,14.496 C189.619997,15.1360032 189.256001,16.0399942 189.144,17.208 L195.936,17.208 C195.904,16.0239941 195.608003,15.1160032 195.048,14.484 C194.487997,13.8519968 193.704005,13.536 192.696,13.536 Z M207.12,13.704 L205.848,13.824 C204.647994,13.9360006 203.780003,14.3119968 203.244,14.952 C202.707997,15.5920032 202.44,16.3839953 202.44,17.328 L202.44,24 L200.496,24 L200.496,12.312 L202.392,12.312 L202.392,14.352 C203.048003,12.9919932 204.33599,12.2320008 206.256,12.072 L206.952,12.024 L207.12,13.704 Z" id="path-1"></path>
        <linearGradient x1="50%" y1="0%" x2="50%" y2="100%" id="linearGradient-2">
            <stop stop-color="#B91C23" offset="0%"></stop>
            <stop stop-color="#173365" offset="100%"></stop>
        </linearGradient>
    </defs>
    <g id="Page-1" stroke="none" stroke-width="1" fill="none" fill-rule="evenodd">
        <g id="logo-title" fill-rule="nonzero">
            <g id="SnapScale-Explorer" transform="translate(56.000000, 1.000000)">
                <g id="SnapScaleExplorer">
                    <use fill="#000000" xlink:href="#path-1"></use>
                    <use fill="#333333" xlink:href="#path-1"></use>
                </g>
            </g>
            <path d="M18.7483512,17 L33.606321,34 L0,34 L14.8579698,17 L0,0 L33.606321,0 L18.7483512,17 Z M27,3 L6.60632098,3 L16.8031605,14.6668881 L27,3 Z M6.60632098,31 L27,31 L16.8031605,19.3331119 L6.60632098,31 Z" id="形状结合复制-9" fill="url(#linearGradient-2)"></path>
        </g>
    </g>
</svg>