<?xml version="1.0" encoding="UTF-8"?>
<svg width="35px" height="37px" viewBox="0 0 35 37" version="1.1" xmlns="http://www.w3.org/2000/svg" xmlns:xlink="http://www.w3.org/1999/xlink">
    <!-- Generator: Sketch 55.1 (78136) - https://sketchapp.com -->
    <title>key (1)</title>
    <desc>Created with Sketch.</desc>
    <g id="snapscale" stroke="none" stroke-width="1" fill="none" fill-rule="evenodd">
        <g id="二级页_02" transform="translate(-119.000000, -618.000000)" fill="#382AC7" fill-rule="nonzero">
            <g id="key-(1)" transform="translate(119.000000, 618.000000)">
                <path d="M13.4027206,17.7813105 C12.2498482,15.9313105 11.7886836,13.8561088 11.7886836,11.5476149 C11.7582838,8.47762807 12.9642211,5.52448697 15.1348848,3.3533209 C17.3055485,1.18215483 20.2584104,-0.0244657709 23.3284042,0.00522354789 C26.3988586,-0.0251878445 29.3524138,1.1811139 31.5236594,3.35235958 C33.6949051,5.52360525 34.9012069,8.47716037 34.8707955,11.5476149 C34.9004848,14.6176086 33.6938642,17.5704705 31.5226981,19.7411343 C29.3515321,21.911798 26.398391,23.1177352 23.3284042,23.0873355 C20.7893279,23.0873355 18.7141262,22.3955885 16.6362145,21.0094238 L11.3275189,26.3181195 L13.8665952,28.8598665 L10.6331012,32.0906898 L8.09402492,29.5516135 L6.4799879,31.1683604 L9.01902492,33.7073975 L5.78553095,36.9382207 L0.0157099185,31.1683604 L13.4027206,17.7786398 L13.4027206,17.7813105 Z M23.6725916,3.82886526 C19.2969807,3.82886526 15.9501908,7.17859049 15.9501908,11.5542014 C15.9501908,15.9298123 19.2969369,19.2766021 23.6725916,19.2766021 C28.0511817,19.2766021 31.3979277,15.9298561 31.3979277,11.5542014 C31.3979277,7.17561132 27.7940093,3.82886526 23.6725916,3.82886526 Z" id="形状"></path>
            </g>
        </g>
    </g>
</svg>