<?xml version="1.0" encoding="UTF-8"?>
<svg width="35px" height="35px" viewBox="0 0 35 35" version="1.1" xmlns="http://www.w3.org/2000/svg" xmlns:xlink="http://www.w3.org/1999/xlink">
    <!-- Generator: Sketch 55.1 (78136) - https://sketchapp.com -->
    <title>transaction</title>
    <desc>Created with Sketch.</desc>
    <g id="snapscale" stroke="none" stroke-width="1" fill="none" fill-rule="evenodd">
        <g id="二级页_01" transform="translate(-120.000000, -667.000000)" fill="#382AC7" fill-rule="nonzero">
            <g id="transaction" transform="translate(121.000000, 668.000000)">
                <path d="M17.2905829,17.1363982 L10.8826647,10.3431392 C10.4505706,9.88506406 9.75342013,9.88629379 9.32265172,10.3427879 C8.89283616,10.7986232 8.89200759,11.5399319 9.32281743,11.9967774 L16.6416547,19.7555078 C17.3713676,20.5486849 18.5031807,19.1581216 18.5031807,19.1581216 L22.8994877,15.2213671 C23.3299661,14.7650487 23.3302561,14.024223 22.8994877,13.567729 C22.4696721,13.1118937 21.7704089,13.1110153 21.3396404,13.567729 L17.2905829,17.1363982 Z" id="路径" transform="translate(16.111228, 15.000000) scale(-1, 1) translate(-16.111228, -15.000000) "></path>
                <path d="M22.8987648,28.287806 L30.8577296,28.287806 C31.4903466,28.287806 32,27.7756382 32,27.143903 C32,26.5135856 31.4885024,26 30.8577296,26 L20.1422275,26 C19.5096105,26 19,26.5122108 19,27.143903 C19,27.4891576 19.1534579,27.7992682 19.3957394,28.0092307 C19.4148252,28.0316147 19.4351118,28.0535261 19.4562133,28.0746641 L22.0421371,30.665062 C22.4877996,31.1114956 23.2110417,31.1117964 23.6570045,30.665062 C24.1021524,30.2193157 24.1029673,29.4941779 23.6570045,29.0474006 L22.8987648,28.287806 Z" id="路径"></path>
                <path d="M31.4060692,21.9869036 C31.7599058,22.1694034 32,22.5228432 32,22.9275972 C32,23.5198052 31.4903466,24 30.8577296,24 L20.1422704,24 C19.5113261,24 19,23.5187177 19,22.9275972 C19,22.3353892 19.5096534,21.8551944 20.1422704,21.8551944 L28.1012352,21.8551944 L27.0100889,20.8306419 C26.5641261,20.4118309 26.5651125,19.7319779 27.0100889,19.3139724 C27.4560517,18.8952419 28.1793366,18.895403 28.6249563,19.3140932 L31.21088,21.742577 C31.2899679,21.8168497 31.354988,21.8992989 31.4060692,21.9869036" id="路径"></path>
                <path d="M16.5000848,30.5684603 C8.73032544,30.5684603 2.43158521,24.2698554 2.43158521,16.500106 C2.43158521,8.7303566 8.73032541,2.43162449 16.5000848,2.43162449 C24.2698442,2.43162449 30.5684148,8.73035663 30.5684148,16.500106 C30.5684148,17.1715643 31.1128755,17.7158546 31.7842074,17.7158546 C32.4557089,17.7158546 33,17.1715643 33,16.500106 C33,7.38735529 25.6126776,0 16.5000848,0 C7.38732238,0 0,7.38735529 0,16.500106 C0,25.6126871 7.38732238,33 16.5000848,33 C17.1715863,33 17.7158774,32.4557096 17.7158774,31.784209 C17.7158774,31.1128779 17.1715863,30.5684603 16.5000848,30.5684603" id="路径" stroke="#382AC7"></path>
            </g>
        </g>
    </g>
</svg>